#N canvas 479 22 1019 768 8;
#X declare -lib tof;
#X declare -lib tof;
#N canvas 93 123 1461 840 resware 0;
#N canvas 712 205 905 623 in&out 0;
#X obj 114 116 list-extend;
#X obj 191 77 sel 10;
#X msg 191 185 49 49;
#X obj 190 157 prepend set;
#X obj 193 236 gate;
#X msg 126 209 0;
#X msg 160 207 1;
#X obj 116 30 inlet;
#X obj 198 268 outlet;
#X obj 87 80 route 10;
#X connect 0 0 3 0;
#X connect 1 0 0 1;
#X connect 1 0 6 0;
#X connect 1 0 2 0;
#X connect 1 1 5 0;
#X connect 2 0 4 1;
#X connect 3 0 2 0;
#X connect 4 0 8 0;
#X connect 5 0 4 0;
#X connect 6 0 4 0;
#X connect 7 0 1 0;
#X connect 7 0 9 0;
#X connect 9 1 0 0;
#X restore 552 73 pd in&out;
#X obj 552 52 comport 2 9600;
#X msg 552 32 devices;
#N canvas 0 22 635 550 seledge 0;
#X obj 97 157 sel 49 48;
#X obj 98 210 edge;
#X msg 94 186 0;
#X msg 123 184 1;
#X msg 95 235 1;
#X msg 121 236 0;
#X obj 102 112 inlet;
#X obj 106 290 outlet;
#X connect 0 0 2 0;
#X connect 0 1 3 0;
#X connect 1 0 4 0;
#X connect 1 1 5 0;
#X connect 2 0 1 0;
#X connect 3 0 1 0;
#X connect 4 0 7 0;
#X connect 5 0 7 0;
#X connect 6 0 0 0;
#X restore 206 286 pd seledge;
#N canvas 0 22 635 550 seledge 0;
#X obj 97 157 sel 49 48;
#X obj 98 210 edge;
#X msg 94 186 0;
#X msg 123 184 1;
#X msg 95 235 1;
#X msg 121 236 0;
#X obj 102 112 inlet;
#X obj 106 290 outlet;
#X connect 0 0 2 0;
#X connect 0 1 3 0;
#X connect 1 0 4 0;
#X connect 1 1 5 0;
#X connect 2 0 1 0;
#X connect 3 0 1 0;
#X connect 4 0 7 0;
#X connect 5 0 7 0;
#X connect 6 0 0 0;
#X restore 228 311 pd seledge;
#N canvas 0 22 635 550 seledge 0;
#X obj 97 157 sel 49 48;
#X obj 98 210 edge;
#X msg 94 186 0;
#X msg 123 184 1;
#X msg 95 235 1;
#X msg 121 236 0;
#X obj 102 112 inlet;
#X obj 106 290 outlet;
#X connect 0 0 2 0;
#X connect 0 1 3 0;
#X connect 1 0 4 0;
#X connect 1 1 5 0;
#X connect 2 0 1 0;
#X connect 3 0 1 0;
#X connect 4 0 7 0;
#X connect 5 0 7 0;
#X connect 6 0 0 0;
#X restore 294 285 pd seledge;
#N canvas 0 22 635 550 seledge 0;
#X obj 97 157 sel 49 48;
#X obj 98 210 edge;
#X msg 94 186 0;
#X msg 123 184 1;
#X msg 95 235 1;
#X msg 121 236 0;
#X obj 102 112 inlet;
#X obj 106 290 outlet;
#X connect 0 0 2 0;
#X connect 0 1 3 0;
#X connect 1 0 4 0;
#X connect 1 1 5 0;
#X connect 2 0 1 0;
#X connect 3 0 1 0;
#X connect 4 0 7 0;
#X connect 5 0 7 0;
#X connect 6 0 0 0;
#X restore 311 307 pd seledge;
#N canvas 0 22 635 550 seledge 0;
#X obj 97 157 sel 49 48;
#X obj 98 210 edge;
#X msg 94 186 0;
#X msg 123 184 1;
#X msg 95 235 1;
#X msg 121 236 0;
#X obj 102 112 inlet;
#X obj 106 290 outlet;
#X connect 0 0 2 0;
#X connect 0 1 3 0;
#X connect 1 0 4 0;
#X connect 1 1 5 0;
#X connect 2 0 1 0;
#X connect 3 0 1 0;
#X connect 4 0 7 0;
#X connect 5 0 7 0;
#X connect 6 0 0 0;
#X restore 365 249 pd seledge;
#N canvas 0 22 635 550 seledge 0;
#X obj 97 157 sel 49 48;
#X obj 98 210 edge;
#X msg 94 186 0;
#X msg 123 184 1;
#X msg 95 235 1;
#X msg 121 236 0;
#X obj 102 112 inlet;
#X obj 106 290 outlet;
#X connect 0 0 2 0;
#X connect 0 1 3 0;
#X connect 1 0 4 0;
#X connect 1 1 5 0;
#X connect 2 0 1 0;
#X connect 3 0 1 0;
#X connect 4 0 7 0;
#X connect 5 0 7 0;
#X connect 6 0 0 0;
#X restore 382 225 pd seledge;
#N canvas 0 22 635 550 seledge 0;
#X obj 97 157 sel 49 48;
#X obj 98 210 edge;
#X msg 94 186 0;
#X msg 123 184 1;
#X msg 95 235 1;
#X msg 121 236 0;
#X obj 102 112 inlet;
#X obj 106 290 outlet;
#X connect 0 0 2 0;
#X connect 0 1 3 0;
#X connect 1 0 4 0;
#X connect 1 1 5 0;
#X connect 2 0 1 0;
#X connect 3 0 1 0;
#X connect 4 0 7 0;
#X connect 5 0 7 0;
#X connect 6 0 0 0;
#X restore 447 254 pd seledge;
#N canvas 0 22 635 550 seledge 0;
#X obj 97 157 sel 49 48;
#X obj 98 210 edge;
#X msg 94 186 0;
#X msg 123 184 1;
#X msg 95 235 1;
#X msg 121 236 0;
#X obj 102 112 inlet;
#X obj 106 290 outlet;
#X connect 0 0 2 0;
#X connect 0 1 3 0;
#X connect 1 0 4 0;
#X connect 1 1 5 0;
#X connect 2 0 1 0;
#X connect 3 0 1 0;
#X connect 4 0 7 0;
#X connect 5 0 7 0;
#X connect 6 0 0 0;
#X restore 451 224 pd seledge;
#X msg 389 441 inc;
#X msg 354 446 dec;
#X obj 387 417 sel 1;
#X obj 350 416 sel 1;
#X obj 450 306 s left;
#X obj 378 295 s down;
#X obj 442 286 s right;
#X obj 366 271 s up;
#X obj 234 335 s b;
#X obj 211 334 s a;
#X obj 211 19 loadbang;
#X msg 252 45 \; pd dsp 1;
#X obj 372 540 r right;
#X obj 439 545 r down;
#N canvas 0 22 635 550 seledge 0;
#X obj 97 157 sel 49 48;
#X obj 98 210 edge;
#X msg 94 186 0;
#X msg 123 184 1;
#X msg 95 235 1;
#X msg 121 236 0;
#X obj 102 112 inlet;
#X obj 106 290 outlet;
#X connect 0 0 2 0;
#X connect 0 1 3 0;
#X connect 1 0 4 0;
#X connect 1 1 5 0;
#X connect 2 0 1 0;
#X connect 3 0 1 0;
#X connect 4 0 7 0;
#X connect 5 0 7 0;
#X connect 6 0 0 0;
#X restore 585 232 pd seledge;
#N canvas 0 22 635 550 seledge 0;
#X obj 97 157 sel 49 48;
#X obj 98 210 edge;
#X msg 94 186 0;
#X msg 123 184 1;
#X msg 95 235 1;
#X msg 121 236 0;
#X obj 102 112 inlet;
#X obj 106 290 outlet;
#X connect 0 0 2 0;
#X connect 0 1 3 0;
#X connect 1 0 4 0;
#X connect 1 1 5 0;
#X connect 2 0 1 0;
#X connect 3 0 1 0;
#X connect 4 0 7 0;
#X connect 5 0 7 0;
#X connect 6 0 0 0;
#X restore 602 208 pd seledge;
#N canvas 0 22 635 550 seledge 0;
#X obj 97 157 sel 49 48;
#X obj 98 210 edge;
#X msg 94 186 0;
#X msg 123 184 1;
#X msg 95 235 1;
#X msg 121 236 0;
#X obj 102 112 inlet;
#X obj 106 290 outlet;
#X connect 0 0 2 0;
#X connect 0 1 3 0;
#X connect 1 0 4 0;
#X connect 1 1 5 0;
#X connect 2 0 1 0;
#X connect 3 0 1 0;
#X connect 4 0 7 0;
#X connect 5 0 7 0;
#X connect 6 0 0 0;
#X restore 656 233 pd seledge;
#N canvas 0 22 635 550 seledge 0;
#X obj 97 157 sel 49 48;
#X obj 98 210 edge;
#X msg 94 186 0;
#X msg 123 184 1;
#X msg 95 235 1;
#X msg 121 236 0;
#X obj 102 112 inlet;
#X obj 106 290 outlet;
#X connect 0 0 2 0;
#X connect 0 1 3 0;
#X connect 1 0 4 0;
#X connect 1 1 5 0;
#X connect 2 0 1 0;
#X connect 3 0 1 0;
#X connect 4 0 7 0;
#X connect 5 0 7 0;
#X connect 6 0 0 0;
#X restore 673 209 pd seledge;
#N canvas 0 22 635 550 seledge 0;
#X obj 97 157 sel 49 48;
#X obj 98 210 edge;
#X msg 94 186 0;
#X msg 123 184 1;
#X msg 95 235 1;
#X msg 121 236 0;
#X obj 102 112 inlet;
#X obj 106 290 outlet;
#X connect 0 0 2 0;
#X connect 0 1 3 0;
#X connect 1 0 4 0;
#X connect 1 1 5 0;
#X connect 2 0 1 0;
#X connect 3 0 1 0;
#X connect 4 0 7 0;
#X connect 5 0 7 0;
#X connect 6 0 0 0;
#X restore 726 233 pd seledge;
#N canvas 0 22 635 550 seledge 0;
#X obj 97 157 sel 49 48;
#X obj 98 210 edge;
#X msg 94 186 0;
#X msg 123 184 1;
#X msg 95 235 1;
#X msg 121 236 0;
#X obj 102 112 inlet;
#X obj 106 290 outlet;
#X connect 0 0 2 0;
#X connect 0 1 3 0;
#X connect 1 0 4 0;
#X connect 1 1 5 0;
#X connect 2 0 1 0;
#X connect 3 0 1 0;
#X connect 4 0 7 0;
#X connect 5 0 7 0;
#X connect 6 0 0 0;
#X restore 743 209 pd seledge;
#N canvas 0 22 635 550 seledge 0;
#X obj 97 157 sel 49 48;
#X obj 98 210 edge;
#X msg 94 186 0;
#X msg 123 184 1;
#X msg 95 235 1;
#X msg 121 236 0;
#X obj 102 112 inlet;
#X obj 106 290 outlet;
#X connect 0 0 2 0;
#X connect 0 1 3 0;
#X connect 1 0 4 0;
#X connect 1 1 5 0;
#X connect 2 0 1 0;
#X connect 3 0 1 0;
#X connect 4 0 7 0;
#X connect 5 0 7 0;
#X connect 6 0 0 0;
#X restore 795 232 pd seledge;
#N canvas 0 22 635 550 seledge 0;
#X obj 97 157 sel 49 48;
#X obj 98 210 edge;
#X msg 94 186 0;
#X msg 123 184 1;
#X msg 95 235 1;
#X msg 121 236 0;
#X obj 102 112 inlet;
#X obj 106 290 outlet;
#X connect 0 0 2 0;
#X connect 0 1 3 0;
#X connect 1 0 4 0;
#X connect 1 1 5 0;
#X connect 2 0 1 0;
#X connect 3 0 1 0;
#X connect 4 0 7 0;
#X connect 5 0 7 0;
#X connect 6 0 0 0;
#X restore 812 208 pd seledge;
#X obj 552 115 unpack 0 0 0 0 0 0 0 0 0 0 0 0 0 0 0 0 0 0 0 0 0 0 0
0 0 0;
#N canvas 0 22 635 550 seledge 0;
#X obj 97 157 sel 49 48;
#X obj 98 210 edge;
#X msg 94 186 0;
#X msg 123 184 1;
#X msg 95 235 1;
#X msg 121 236 0;
#X obj 102 112 inlet;
#X obj 106 290 outlet;
#X connect 0 0 2 0;
#X connect 0 1 3 0;
#X connect 1 0 4 0;
#X connect 1 1 5 0;
#X connect 2 0 1 0;
#X connect 3 0 1 0;
#X connect 4 0 7 0;
#X connect 5 0 7 0;
#X connect 6 0 0 0;
#X restore 920 236 pd seledge;
#N canvas 0 22 635 550 seledge 0;
#X obj 97 157 sel 49 48;
#X obj 98 210 edge;
#X msg 94 186 0;
#X msg 123 184 1;
#X msg 95 235 1;
#X msg 121 236 0;
#X obj 102 112 inlet;
#X obj 106 290 outlet;
#X connect 0 0 2 0;
#X connect 0 1 3 0;
#X connect 1 0 4 0;
#X connect 1 1 5 0;
#X connect 2 0 1 0;
#X connect 3 0 1 0;
#X connect 4 0 7 0;
#X connect 5 0 7 0;
#X connect 6 0 0 0;
#X restore 937 212 pd seledge;
#N canvas 0 22 635 550 seledge 0;
#X obj 97 157 sel 49 48;
#X obj 98 210 edge;
#X msg 94 186 0;
#X msg 123 184 1;
#X msg 95 235 1;
#X msg 121 236 0;
#X obj 102 112 inlet;
#X obj 106 290 outlet;
#X connect 0 0 2 0;
#X connect 0 1 3 0;
#X connect 1 0 4 0;
#X connect 1 1 5 0;
#X connect 2 0 1 0;
#X connect 3 0 1 0;
#X connect 4 0 7 0;
#X connect 5 0 7 0;
#X connect 6 0 0 0;
#X restore 991 237 pd seledge;
#N canvas 0 22 635 550 seledge 0;
#X obj 97 157 sel 49 48;
#X obj 98 210 edge;
#X msg 94 186 0;
#X msg 123 184 1;
#X msg 95 235 1;
#X msg 121 236 0;
#X obj 102 112 inlet;
#X obj 106 290 outlet;
#X connect 0 0 2 0;
#X connect 0 1 3 0;
#X connect 1 0 4 0;
#X connect 1 1 5 0;
#X connect 2 0 1 0;
#X connect 3 0 1 0;
#X connect 4 0 7 0;
#X connect 5 0 7 0;
#X connect 6 0 0 0;
#X restore 1008 213 pd seledge;
#N canvas 0 22 635 550 seledge 0;
#X obj 97 157 sel 49 48;
#X obj 98 210 edge;
#X msg 94 186 0;
#X msg 123 184 1;
#X msg 95 235 1;
#X msg 121 236 0;
#X obj 102 112 inlet;
#X obj 106 290 outlet;
#X connect 0 0 2 0;
#X connect 0 1 3 0;
#X connect 1 0 4 0;
#X connect 1 1 5 0;
#X connect 2 0 1 0;
#X connect 3 0 1 0;
#X connect 4 0 7 0;
#X connect 5 0 7 0;
#X connect 6 0 0 0;
#X restore 1061 237 pd seledge;
#N canvas 0 22 635 550 seledge 0;
#X obj 97 157 sel 49 48;
#X obj 98 210 edge;
#X msg 94 186 0;
#X msg 123 184 1;
#X msg 95 235 1;
#X msg 121 236 0;
#X obj 102 112 inlet;
#X obj 106 290 outlet;
#X connect 0 0 2 0;
#X connect 0 1 3 0;
#X connect 1 0 4 0;
#X connect 1 1 5 0;
#X connect 2 0 1 0;
#X connect 3 0 1 0;
#X connect 4 0 7 0;
#X connect 5 0 7 0;
#X connect 6 0 0 0;
#X restore 1078 213 pd seledge;
#N canvas 0 22 635 550 seledge 0;
#X obj 97 157 sel 49 48;
#X obj 98 210 edge;
#X msg 94 186 0;
#X msg 123 184 1;
#X msg 95 235 1;
#X msg 121 236 0;
#X obj 102 112 inlet;
#X obj 106 290 outlet;
#X connect 0 0 2 0;
#X connect 0 1 3 0;
#X connect 1 0 4 0;
#X connect 1 1 5 0;
#X connect 2 0 1 0;
#X connect 3 0 1 0;
#X connect 4 0 7 0;
#X connect 5 0 7 0;
#X connect 6 0 0 0;
#X restore 1130 236 pd seledge;
#N canvas 0 22 635 550 seledge 0;
#X obj 97 157 sel 49 48;
#X obj 98 210 edge;
#X msg 94 186 0;
#X msg 123 184 1;
#X msg 95 235 1;
#X msg 121 236 0;
#X obj 102 112 inlet;
#X obj 106 290 outlet;
#X connect 0 0 2 0;
#X connect 0 1 3 0;
#X connect 1 0 4 0;
#X connect 1 1 5 0;
#X connect 2 0 1 0;
#X connect 3 0 1 0;
#X connect 4 0 7 0;
#X connect 5 0 7 0;
#X connect 6 0 0 0;
#X restore 1147 212 pd seledge;
#X obj 997 537 r a3;
#X obj 922 276 s a3;
#X obj 948 260 s b3;
#X msg 1164 446 inc;
#X msg 1129 451 dec;
#X obj 1162 422 sel 1;
#X obj 1125 421 sel 1;
#X obj 1061 271 s up3;
#X obj 1134 265 s left3;
#X obj 1072 299 s down3;
#X obj 1155 293 s right3;
#X obj 1064 536 r b3;
#X obj 1134 534 r right3;
#X obj 1265 537 r down3;
#X obj 604 566 r loop;
#N canvas 627 194 954 747 sound 0;
#X obj 105 622 dac~;
#X obj 109 331 readsf~ 2;
#X obj 169 356 bng 15 250 50 0 empty empty empty 17 7 0 10 -262144
-1 -1;
#X obj 147 378 gate;
#X obj 111 154 sel 1 0;
#X obj 85 48 inlet;
#X obj 182 50 inlet;
#X obj 192 425 line~;
#X msg 218 397 0 10;
#X obj 62 447 *~;
#X obj 232 49 inlet;
#X obj 87 183 t b b b;
#X msg 150 287 1;
#X obj 145 404 t b b;
#X msg 187 298 stop;
#X msg 204 376 0.4 10;
#X obj 254 437 t b;
#X obj 255 472 delay 20;
#X obj 257 505 bng 15 250 50 0 empty empty empty 17 7 0 10 -262144
-1 -1;
#X obj 116 557 *~;
#X obj 139 494 hsl 128 15 0 1000 0 0 empty empty empty -2 -8 0 10 -262144
-1 -1 889 1;
#X obj 136 525 * 0.01;
#X msg 104 219 open controller2/5th Switch Reversed.wav;
#X obj 137 464 r controller2;
#X connect 1 0 9 0;
#X connect 1 1 9 0;
#X connect 1 2 2 0;
#X connect 2 0 3 1;
#X connect 3 0 13 0;
#X connect 4 0 11 0;
#X connect 4 1 8 0;
#X connect 5 0 4 0;
#X connect 6 0 3 0;
#X connect 7 0 9 1;
#X connect 8 0 7 0;
#X connect 8 0 16 0;
#X connect 9 0 19 0;
#X connect 10 0 22 0;
#X connect 11 0 12 0;
#X connect 11 1 22 0;
#X connect 11 2 15 0;
#X connect 12 0 1 0;
#X connect 13 0 12 0;
#X connect 13 1 22 0;
#X connect 14 0 1 0;
#X connect 15 0 7 0;
#X connect 16 0 17 0;
#X connect 17 0 18 0;
#X connect 18 0 14 0;
#X connect 19 0 0 0;
#X connect 19 0 0 1;
#X connect 20 0 21 0;
#X connect 21 0 19 1;
#X connect 22 0 1 0;
#X connect 23 0 20 0;
#X restore 587 588 pd sound;
#X obj 667 566 r loop;
#N canvas 181 196 581 700 sound 0;
#X obj 115 632 dac~;
#X obj 119 341 readsf~ 2;
#X obj 179 366 bng 15 250 50 0 empty empty empty 17 7 0 10 -262144
-1 -1;
#X obj 157 388 gate;
#X obj 121 164 sel 1 0;
#X obj 95 58 inlet;
#X obj 192 60 inlet;
#X obj 202 435 line~;
#X msg 228 407 0 10;
#X obj 72 457 *~;
#X obj 242 59 inlet;
#X obj 97 193 t b b b;
#X msg 160 297 1;
#X obj 155 414 t b b;
#X msg 197 308 stop;
#X msg 214 386 0.4 10;
#X obj 264 447 t b;
#X obj 265 482 delay 20;
#X obj 267 515 bng 15 250 50 0 empty empty empty 17 7 0 10 -262144
-1 -1;
#X obj 126 567 *~;
#X obj 149 507 hsl 128 15 0 1000 0 0 empty empty empty -2 -8 0 10 -262144
-1 -1 889 1;
#X floatatom 170 567 5 0 0 0 - - -;
#X obj 146 535 * 0.01;
#X obj 147 474 r controller2;
#X msg 114 229 open controller2/5th Switch.wav;
#X connect 1 0 9 0;
#X connect 1 1 9 0;
#X connect 1 2 2 0;
#X connect 2 0 3 1;
#X connect 3 0 13 0;
#X connect 4 0 11 0;
#X connect 4 1 8 0;
#X connect 5 0 4 0;
#X connect 6 0 3 0;
#X connect 7 0 9 1;
#X connect 8 0 7 0;
#X connect 8 0 16 0;
#X connect 9 0 19 0;
#X connect 10 0 24 0;
#X connect 11 0 12 0;
#X connect 11 1 24 0;
#X connect 11 2 15 0;
#X connect 12 0 1 0;
#X connect 13 0 12 0;
#X connect 13 1 24 0;
#X connect 14 0 1 0;
#X connect 15 0 7 0;
#X connect 16 0 17 0;
#X connect 17 0 18 0;
#X connect 18 0 14 0;
#X connect 19 0 0 0;
#X connect 19 0 0 1;
#X connect 20 0 22 0;
#X connect 22 0 19 1;
#X connect 22 0 21 0;
#X connect 23 0 20 0;
#X connect 24 0 1 0;
#X restore 650 588 pd sound;
#X obj 731 567 r loop;
#N canvas 0 217 581 700 sound 0;
#X obj 125 642 dac~;
#X obj 129 351 readsf~ 2;
#X obj 189 376 bng 15 250 50 0 empty empty empty 17 7 0 10 -262144
-1 -1;
#X obj 167 398 gate;
#X obj 131 174 sel 1 0;
#X obj 105 68 inlet;
#X obj 202 70 inlet;
#X obj 212 445 line~;
#X msg 238 417 0 10;
#X obj 82 467 *~;
#X obj 252 69 inlet;
#X obj 107 203 t b b b;
#X msg 170 307 1;
#X obj 165 424 t b b;
#X msg 207 318 stop;
#X msg 224 396 0.4 10;
#X obj 274 457 t b;
#X obj 275 492 delay 20;
#X obj 277 525 bng 15 250 50 0 empty empty empty 17 7 0 10 -262144
-1 -1;
#X obj 136 577 *~;
#X obj 159 517 hsl 128 15 0 1000 0 0 empty empty empty -2 -8 0 10 -262144
-1 -1 889 1;
#X floatatom 180 577 5 0 0 0 - - -;
#X obj 156 545 * 0.01;
#X obj 157 484 r controller2;
#X msg 124 239 open controller2/Aint No Foolin Round.wav;
#X connect 1 0 9 0;
#X connect 1 1 9 0;
#X connect 1 2 2 0;
#X connect 2 0 3 1;
#X connect 3 0 13 0;
#X connect 4 0 11 0;
#X connect 4 1 8 0;
#X connect 5 0 4 0;
#X connect 6 0 3 0;
#X connect 7 0 9 1;
#X connect 8 0 7 0;
#X connect 8 0 16 0;
#X connect 9 0 19 0;
#X connect 10 0 24 0;
#X connect 11 0 12 0;
#X connect 11 1 24 0;
#X connect 11 2 15 0;
#X connect 12 0 1 0;
#X connect 13 0 12 0;
#X connect 13 1 24 0;
#X connect 14 0 1 0;
#X connect 15 0 7 0;
#X connect 16 0 17 0;
#X connect 17 0 18 0;
#X connect 18 0 14 0;
#X connect 19 0 0 0;
#X connect 19 0 0 1;
#X connect 20 0 22 0;
#X connect 22 0 19 1;
#X connect 22 0 21 0;
#X connect 23 0 20 0;
#X connect 24 0 1 0;
#X restore 714 589 pd sound;
#X obj 797 566 r loop;
#N canvas 181 196 581 700 sound 0;
#X obj 135 652 dac~;
#X obj 139 361 readsf~ 2;
#X obj 199 386 bng 15 250 50 0 empty empty empty 17 7 0 10 -262144
-1 -1;
#X obj 177 408 gate;
#X obj 141 184 sel 1 0;
#X obj 115 78 inlet;
#X obj 212 80 inlet;
#X obj 222 455 line~;
#X msg 248 427 0 10;
#X obj 92 477 *~;
#X obj 262 79 inlet;
#X obj 117 213 t b b b;
#X msg 180 317 1;
#X obj 175 434 t b b;
#X msg 217 328 stop;
#X msg 234 406 0.4 10;
#X obj 284 467 t b;
#X obj 285 502 delay 20;
#X obj 287 535 bng 15 250 50 0 empty empty empty 17 7 0 10 -262144
-1 -1;
#X obj 146 587 *~;
#X obj 169 527 hsl 128 15 0 1000 0 0 empty empty empty -2 -8 0 10 -262144
-1 -1 889 1;
#X floatatom 190 587 5 0 0 0 - - -;
#X obj 166 555 * 0.01;
#X obj 167 494 r controller2;
#X msg 134 249 open controller2/Air Pad.wav;
#X connect 1 0 9 0;
#X connect 1 1 9 0;
#X connect 1 2 2 0;
#X connect 2 0 3 1;
#X connect 3 0 13 0;
#X connect 4 0 11 0;
#X connect 4 1 8 0;
#X connect 5 0 4 0;
#X connect 6 0 3 0;
#X connect 7 0 9 1;
#X connect 8 0 7 0;
#X connect 8 0 16 0;
#X connect 9 0 19 0;
#X connect 10 0 24 0;
#X connect 11 0 12 0;
#X connect 11 1 24 0;
#X connect 11 2 15 0;
#X connect 12 0 1 0;
#X connect 13 0 12 0;
#X connect 13 1 24 0;
#X connect 14 0 1 0;
#X connect 15 0 7 0;
#X connect 16 0 17 0;
#X connect 17 0 18 0;
#X connect 18 0 14 0;
#X connect 19 0 0 0;
#X connect 19 0 0 1;
#X connect 20 0 22 0;
#X connect 22 0 19 1;
#X connect 22 0 21 0;
#X connect 23 0 20 0;
#X connect 24 0 1 0;
#X restore 775 590 pd sound;
#X obj 859 569 r loop;
#N canvas 181 196 581 700 sound 0;
#X obj 145 662 dac~;
#X obj 149 371 readsf~ 2;
#X obj 209 396 bng 15 250 50 0 empty empty empty 17 7 0 10 -262144
-1 -1;
#X obj 187 418 gate;
#X obj 151 194 sel 1 0;
#X obj 125 88 inlet;
#X obj 222 90 inlet;
#X obj 232 465 line~;
#X msg 258 437 0 10;
#X obj 102 487 *~;
#X obj 272 89 inlet;
#X obj 127 223 t b b b;
#X msg 190 327 1;
#X obj 185 444 t b b;
#X msg 227 338 stop;
#X msg 244 416 0.4 10;
#X obj 294 477 t b;
#X obj 295 512 delay 20;
#X obj 297 545 bng 15 250 50 0 empty empty empty 17 7 0 10 -262144
-1 -1;
#X obj 156 597 *~;
#X obj 179 537 hsl 128 15 0 1000 0 0 empty empty empty -2 -8 0 10 -262144
-1 -1 889 1;
#X floatatom 200 597 5 0 0 0 - - -;
#X obj 176 565 * 0.01;
#X obj 177 504 r controller2;
#X msg 144 259 open controller2/Ambient Strum.wav;
#X connect 1 0 9 0;
#X connect 1 1 9 0;
#X connect 1 2 2 0;
#X connect 2 0 3 1;
#X connect 3 0 13 0;
#X connect 4 0 11 0;
#X connect 4 1 8 0;
#X connect 5 0 4 0;
#X connect 6 0 3 0;
#X connect 7 0 9 1;
#X connect 8 0 7 0;
#X connect 8 0 16 0;
#X connect 9 0 19 0;
#X connect 10 0 24 0;
#X connect 11 0 12 0;
#X connect 11 1 24 0;
#X connect 11 2 15 0;
#X connect 12 0 1 0;
#X connect 13 0 12 0;
#X connect 13 1 24 0;
#X connect 14 0 1 0;
#X connect 15 0 7 0;
#X connect 16 0 17 0;
#X connect 17 0 18 0;
#X connect 18 0 14 0;
#X connect 19 0 0 0;
#X connect 19 0 0 1;
#X connect 20 0 22 0;
#X connect 22 0 19 1;
#X connect 22 0 21 0;
#X connect 23 0 20 0;
#X connect 24 0 1 0;
#X restore 842 591 pd sound;
#X obj 919 569 r loop;
#N canvas 181 196 581 700 sound 0;
#X obj 155 672 dac~;
#X obj 159 381 readsf~ 2;
#X obj 219 406 bng 15 250 50 0 empty empty empty 17 7 0 10 -262144
-1 -1;
#X obj 197 428 gate;
#X obj 161 204 sel 1 0;
#X obj 135 98 inlet;
#X obj 232 100 inlet;
#X obj 242 475 line~;
#X msg 268 447 0 10;
#X obj 112 497 *~;
#X obj 282 99 inlet;
#X obj 137 233 t b b b;
#X msg 200 337 1;
#X obj 195 454 t b b;
#X msg 237 348 stop;
#X msg 254 426 0.4 10;
#X obj 304 487 t b;
#X obj 305 522 delay 20;
#X obj 307 555 bng 15 250 50 0 empty empty empty 17 7 0 10 -262144
-1 -1;
#X obj 166 607 *~;
#X obj 189 547 hsl 128 15 0 1000 0 0 empty empty empty -2 -8 0 10 -262144
-1 -1 889 1;
#X floatatom 210 607 5 0 0 0 - - -;
#X obj 186 575 * 0.01;
#X obj 187 514 r controller2;
#X msg 154 269 open controller2/And Give It Up.wav;
#X connect 1 0 9 0;
#X connect 1 1 9 0;
#X connect 1 2 2 0;
#X connect 2 0 3 1;
#X connect 3 0 13 0;
#X connect 4 0 11 0;
#X connect 4 1 8 0;
#X connect 5 0 4 0;
#X connect 6 0 3 0;
#X connect 7 0 9 1;
#X connect 8 0 7 0;
#X connect 8 0 16 0;
#X connect 9 0 19 0;
#X connect 10 0 24 0;
#X connect 11 0 12 0;
#X connect 11 1 24 0;
#X connect 11 2 15 0;
#X connect 12 0 1 0;
#X connect 13 0 12 0;
#X connect 13 1 24 0;
#X connect 14 0 1 0;
#X connect 15 0 7 0;
#X connect 16 0 17 0;
#X connect 17 0 18 0;
#X connect 18 0 14 0;
#X connect 19 0 0 0;
#X connect 19 0 0 1;
#X connect 20 0 22 0;
#X connect 22 0 19 1;
#X connect 22 0 21 0;
#X connect 23 0 20 0;
#X connect 24 0 1 0;
#X restore 902 591 pd sound;
#X obj 580 546 r a2;
#X obj 643 546 r b2;
#X obj 707 547 r right2;
#X obj 773 546 r left2;
#X obj 835 549 r down2;
#X obj 894 548 r up2;
#X obj 245 529 r up;
#X obj 310 542 r b;
#X obj 504 544 r a;
#X obj 190 536 r left;
#X obj 1339 540 r left3;
#X obj 1202 532 r up3;
#X msg 753 427 inc;
#X msg 718 432 dec;
#X obj 751 403 sel 1;
#X obj 714 402 sel 1;
#X obj 723 259 s up2;
#X obj 795 259 s left2;
#X obj 741 281 s down2;
#X obj 807 279 s right2;
#X obj 596 263 s b2;
#X obj 585 282 s a2;
#X text 335 487 DRUMS;
#X text 689 513 BASS;
#X text 1110 506 LOOPS;
#N canvas 0 22 656 509 loader 0;
#X obj 131 376 dac~;
#X obj 177 215 readsf~ 2;
#X msg 218 171 1;
#X obj 136 321 *~ 0.8;
#X msg 172 103 open smb_coin.wav;
#X obj 155 67 t b b;
#X obj 153 33 inlet;
#X connect 1 0 3 0;
#X connect 1 1 3 0;
#X connect 2 0 1 0;
#X connect 3 0 0 0;
#X connect 3 0 0 1;
#X connect 4 0 1 0;
#X connect 5 0 2 0;
#X connect 5 1 4 0;
#X connect 6 0 5 0;
#X restore 212 97 pd loader;
#X obj 212 78 delay 100;
#N canvas 416 22 1240 821 files_loader 0;
#X obj 187 39 bng 15 250 50 0 empty empty empty 17 7 0 10 -4034 -1
-1;
#X obj 187 58 folderpanel;
#X obj 187 117 makefilename %s/*;
#X obj 187 139 folder_list;
#X obj 187 161 symbol2list /;
#X obj 187 183 t l l;
#X obj 232 208 list length;
#X obj 232 230 - 1;
#X obj 187 254 list-idx;
#X obj 183 688 msgfile;
#X msg 309 534 clear;
#X msg 187 573 add \$1;
#X obj 187 490 list prepend;
#X obj 187 512 list2symbol /;
#X msg 70 536 rewind \, flush;
#X text 298 112 <-- tell [folder_list] to output all files and folders
within the folder;
#X text 113 202 strip path;
#X text 280 510 <-- add path back to file;
#X obj 187 80 trigger symbol symbol bang bang;
#X obj 399 584 f 0;
#X obj 432 584 + 1;
#X msg 414 559 0;
#X text 460 565 count how many files are loaded;
#X obj 187 534 t s b;
#X msg 227 663 goto \$1 \, this;
#X text 288 581 random file;
#X text 206 36 <-- click me and choose a folder;
#X obj 452 614 - 1;
#X obj 184 712 prepend open;
#X obj 89 33 inlet;
#X obj 408 34 inlet;
#X obj 184 788 outlet;
#X obj 183 734 prepend set;
#X obj 189 7 loadbang;
#X obj 367 669 + 1;
#X obj 323 713 msgfile;
#X msg 367 688 goto \$1 \, this;
#X obj 323 732 prepend open;
#X obj 323 751 prepend set;
#X obj 324 786 outlet;
#X obj 445 714 msgfile;
#X msg 489 689 goto \$1 \, this;
#X obj 445 733 prepend open;
#X obj 445 752 prepend set;
#X obj 446 787 outlet;
#X obj 559 714 msgfile;
#X msg 603 689 goto \$1 \, this;
#X obj 559 733 prepend open;
#X obj 559 752 prepend set;
#X obj 560 787 outlet;
#X obj 660 718 msgfile;
#X msg 704 693 goto \$1 \, this;
#X obj 660 737 prepend open;
#X obj 660 756 prepend set;
#X obj 661 791 outlet;
#X obj 777 718 msgfile;
#X msg 821 693 goto \$1 \, this;
#X obj 777 737 prepend open;
#X obj 777 756 prepend set;
#X obj 778 791 outlet;
#X obj 489 670 + 2;
#X obj 603 670 + 3;
#X obj 704 674 + 4;
#X obj 821 674 + 5;
#X obj 492 531 bng 15 250 50 0 empty empty empty 0 -6 0 8 -262144 -1
-1;
#X text 515 533 reset when loading new folder;
#X obj 466 496 t b;
#X floatatom 740 545 5 0 0 0 - - -;
#X text 770 545 total number of files;
#X obj 753 563 / 6;
#X obj 697 587 counter 1;
#X floatatom 639 632 5 0 0 0 - - -;
#X obj 697 612 * 6;
#X msg 266 21 symbol controller1;
#X obj 53 609 print;
#X connect 0 0 1 0;
#X connect 1 0 18 0;
#X connect 2 0 3 0;
#X connect 3 0 4 0;
#X connect 4 0 5 0;
#X connect 5 0 8 0;
#X connect 5 1 6 0;
#X connect 6 0 7 0;
#X connect 7 0 8 1;
#X connect 8 0 12 0;
#X connect 9 0 28 0;
#X connect 10 0 9 0;
#X connect 10 0 35 0;
#X connect 10 0 40 0;
#X connect 10 0 45 0;
#X connect 10 0 50 0;
#X connect 10 0 55 0;
#X connect 11 0 9 0;
#X connect 11 0 35 0;
#X connect 11 0 40 0;
#X connect 11 0 45 0;
#X connect 11 0 50 0;
#X connect 11 0 55 0;
#X connect 11 0 66 0;
#X connect 12 0 13 0;
#X connect 13 0 23 0;
#X connect 13 0 74 0;
#X connect 14 0 9 0;
#X connect 18 0 2 0;
#X connect 18 1 12 1;
#X connect 18 2 10 0;
#X connect 18 3 21 0;
#X connect 19 0 20 0;
#X connect 20 0 19 1;
#X connect 20 0 27 0;
#X connect 21 0 19 1;
#X connect 23 0 11 0;
#X connect 23 1 19 0;
#X connect 24 0 9 0;
#X connect 27 0 67 0;
#X connect 28 0 32 0;
#X connect 29 0 0 0;
#X connect 30 0 70 0;
#X connect 32 0 31 0;
#X connect 33 0 73 0;
#X connect 34 0 36 0;
#X connect 35 0 37 0;
#X connect 36 0 35 0;
#X connect 37 0 38 0;
#X connect 38 0 39 0;
#X connect 40 0 42 0;
#X connect 41 0 40 0;
#X connect 42 0 43 0;
#X connect 43 0 44 0;
#X connect 45 0 47 0;
#X connect 46 0 45 0;
#X connect 47 0 48 0;
#X connect 48 0 49 0;
#X connect 50 0 52 0;
#X connect 51 0 50 0;
#X connect 52 0 53 0;
#X connect 53 0 54 0;
#X connect 55 0 57 0;
#X connect 56 0 55 0;
#X connect 57 0 58 0;
#X connect 58 0 59 0;
#X connect 60 0 41 0;
#X connect 61 0 46 0;
#X connect 62 0 51 0;
#X connect 63 0 56 0;
#X connect 64 0 70 3;
#X connect 66 0 64 0;
#X connect 67 0 69 0;
#X connect 69 0 70 4;
#X connect 70 0 72 0;
#X connect 71 0 24 0;
#X connect 71 0 34 0;
#X connect 71 0 60 0;
#X connect 71 0 61 0;
#X connect 71 0 62 0;
#X connect 71 0 63 0;
#X connect 72 0 71 0;
#X connect 73 0 18 0;
#X restore 245 487 pd files_loader;
#X text 237 459 Select folder;
#X obj 361 67 s volume;
#N canvas 627 194 954 747 sound 0;
#X obj 105 622 dac~;
#X obj 109 331 readsf~ 2;
#X obj 169 356 bng 15 250 50 0 empty empty empty 17 7 0 10 -262144
-1 -1;
#X obj 147 378 gate;
#X obj 111 154 sel 1 0;
#X obj 85 48 inlet;
#X obj 182 50 inlet;
#X obj 192 425 line~;
#X msg 218 397 0 10;
#X obj 62 447 *~;
#X obj 232 49 inlet;
#X obj 87 183 t b b b;
#X msg 150 287 1;
#X obj 145 404 t b b;
#X msg 187 298 stop;
#X msg 204 376 0.4 10;
#X obj 254 437 t b;
#X obj 255 472 delay 20;
#X obj 257 505 bng 15 250 50 0 empty empty empty 17 7 0 10 -262144
-1 -1;
#X obj 116 557 *~;
#X obj 139 494 hsl 128 15 0 1000 0 0 empty empty empty -2 -8 0 10 -262144
-1 -1 698 1;
#X obj 136 525 * 0.01;
#X msg 104 219 open controller3/SFX 01.wav;
#X obj 137 464 r controller3;
#X connect 1 0 9 0;
#X connect 1 1 9 0;
#X connect 1 2 2 0;
#X connect 2 0 3 1;
#X connect 3 0 13 0;
#X connect 4 0 11 0;
#X connect 4 1 8 0;
#X connect 5 0 4 0;
#X connect 6 0 3 0;
#X connect 7 0 9 1;
#X connect 8 0 7 0;
#X connect 8 0 16 0;
#X connect 9 0 19 0;
#X connect 10 0 22 0;
#X connect 11 0 12 0;
#X connect 11 1 22 0;
#X connect 11 2 15 0;
#X connect 12 0 1 0;
#X connect 13 0 12 0;
#X connect 13 1 22 0;
#X connect 14 0 1 0;
#X connect 15 0 7 0;
#X connect 16 0 17 0;
#X connect 17 0 18 0;
#X connect 18 0 14 0;
#X connect 19 0 0 0;
#X connect 19 0 0 1;
#X connect 20 0 21 0;
#X connect 21 0 19 1;
#X connect 22 0 1 0;
#X connect 23 0 20 0;
#X restore 1000 577 pd sound;
#N canvas 181 196 581 700 sound 0;
#X obj 115 632 dac~;
#X obj 119 341 readsf~ 2;
#X obj 179 366 bng 15 250 50 0 empty empty empty 17 7 0 10 -262144
-1 -1;
#X obj 157 388 gate;
#X obj 121 164 sel 1 0;
#X obj 95 58 inlet;
#X obj 192 60 inlet;
#X obj 202 435 line~;
#X msg 228 407 0 10;
#X obj 72 457 *~;
#X obj 242 59 inlet;
#X obj 97 193 t b b b;
#X msg 160 297 1;
#X obj 155 414 t b b;
#X msg 197 308 stop;
#X msg 214 386 0.4 10;
#X obj 264 447 t b;
#X obj 265 482 delay 20;
#X obj 267 515 bng 15 250 50 0 empty empty empty 17 7 0 10 -262144
-1 -1;
#X obj 126 567 *~;
#X obj 149 507 hsl 128 15 0 1000 0 0 empty empty empty -2 -8 0 10 -262144
-1 -1 698 1;
#X floatatom 170 567 5 0 0 0 - - -;
#X obj 146 535 * 0.01;
#X msg 114 229 open controller3/SFX 02.wav;
#X obj 148 474 r controller3;
#X connect 1 0 9 0;
#X connect 1 1 9 0;
#X connect 1 2 2 0;
#X connect 2 0 3 1;
#X connect 3 0 13 0;
#X connect 4 0 11 0;
#X connect 4 1 8 0;
#X connect 5 0 4 0;
#X connect 6 0 3 0;
#X connect 7 0 9 1;
#X connect 8 0 7 0;
#X connect 8 0 16 0;
#X connect 9 0 19 0;
#X connect 10 0 23 0;
#X connect 11 0 12 0;
#X connect 11 1 23 0;
#X connect 11 2 15 0;
#X connect 12 0 1 0;
#X connect 13 0 12 0;
#X connect 13 1 23 0;
#X connect 14 0 1 0;
#X connect 15 0 7 0;
#X connect 16 0 17 0;
#X connect 17 0 18 0;
#X connect 18 0 14 0;
#X connect 19 0 0 0;
#X connect 19 0 0 1;
#X connect 20 0 22 0;
#X connect 22 0 19 1;
#X connect 22 0 21 0;
#X connect 23 0 1 0;
#X connect 24 0 20 0;
#X restore 1069 577 pd sound;
#N canvas 0 217 581 700 sound 0;
#X obj 125 642 dac~;
#X obj 129 351 readsf~ 2;
#X obj 189 376 bng 15 250 50 0 empty empty empty 17 7 0 10 -262144
-1 -1;
#X obj 167 398 gate;
#X obj 131 174 sel 1 0;
#X obj 105 68 inlet;
#X obj 202 70 inlet;
#X obj 212 445 line~;
#X msg 238 417 0 10;
#X obj 82 467 *~;
#X obj 252 69 inlet;
#X obj 107 203 t b b b;
#X msg 170 307 1;
#X obj 165 424 t b b;
#X msg 207 318 stop;
#X msg 224 396 0.4 10;
#X obj 274 457 t b;
#X obj 275 492 delay 20;
#X obj 277 525 bng 15 250 50 0 empty empty empty 17 7 0 10 -262144
-1 -1;
#X obj 136 577 *~;
#X obj 159 517 hsl 128 15 0 1000 0 0 empty empty empty -2 -8 0 10 -262144
-1 -1 698 1;
#X floatatom 180 577 5 0 0 0 - - -;
#X obj 156 545 * 0.01;
#X msg 124 239 open controller3/SFX 03.wav;
#X obj 157 484 r controller3;
#X connect 1 0 9 0;
#X connect 1 1 9 0;
#X connect 1 2 2 0;
#X connect 2 0 3 1;
#X connect 3 0 13 0;
#X connect 4 0 11 0;
#X connect 4 1 8 0;
#X connect 5 0 4 0;
#X connect 6 0 3 0;
#X connect 7 0 9 1;
#X connect 8 0 7 0;
#X connect 8 0 16 0;
#X connect 9 0 19 0;
#X connect 10 0 23 0;
#X connect 11 0 12 0;
#X connect 11 1 23 0;
#X connect 11 2 15 0;
#X connect 12 0 1 0;
#X connect 13 0 12 0;
#X connect 13 1 23 0;
#X connect 14 0 1 0;
#X connect 15 0 7 0;
#X connect 16 0 17 0;
#X connect 17 0 18 0;
#X connect 18 0 14 0;
#X connect 19 0 0 0;
#X connect 19 0 0 1;
#X connect 20 0 22 0;
#X connect 22 0 19 1;
#X connect 22 0 21 0;
#X connect 23 0 1 0;
#X connect 24 0 20 0;
#X restore 1139 574 pd sound;
#N canvas 181 196 581 700 sound 0;
#X obj 135 652 dac~;
#X obj 139 361 readsf~ 2;
#X obj 199 386 bng 15 250 50 0 empty empty empty 17 7 0 10 -262144
-1 -1;
#X obj 177 408 gate;
#X obj 141 184 sel 1 0;
#X obj 115 78 inlet;
#X obj 212 80 inlet;
#X obj 222 455 line~;
#X msg 248 427 0 10;
#X obj 92 477 *~;
#X obj 262 79 inlet;
#X obj 117 213 t b b b;
#X msg 180 317 1;
#X obj 175 434 t b b;
#X msg 217 328 stop;
#X msg 234 406 0.4 10;
#X obj 284 467 t b;
#X obj 285 502 delay 20;
#X obj 287 535 bng 15 250 50 0 empty empty empty 17 7 0 10 -262144
-1 -1;
#X obj 146 587 *~;
#X obj 169 527 hsl 128 15 0 1000 0 0 empty empty empty -2 -8 0 10 -262144
-1 -1 698 1;
#X floatatom 190 587 5 0 0 0 - - -;
#X obj 166 555 * 0.01;
#X msg 134 249 open controller3/SFX 04.wav;
#X obj 167 494 r controller3;
#X connect 1 0 9 0;
#X connect 1 1 9 0;
#X connect 1 2 2 0;
#X connect 2 0 3 1;
#X connect 3 0 13 0;
#X connect 4 0 11 0;
#X connect 4 1 8 0;
#X connect 5 0 4 0;
#X connect 6 0 3 0;
#X connect 7 0 9 1;
#X connect 8 0 7 0;
#X connect 8 0 16 0;
#X connect 9 0 19 0;
#X connect 10 0 23 0;
#X connect 11 0 12 0;
#X connect 11 1 23 0;
#X connect 11 2 15 0;
#X connect 12 0 1 0;
#X connect 13 0 12 0;
#X connect 13 1 23 0;
#X connect 14 0 1 0;
#X connect 15 0 7 0;
#X connect 16 0 17 0;
#X connect 17 0 18 0;
#X connect 18 0 14 0;
#X connect 19 0 0 0;
#X connect 19 0 0 1;
#X connect 20 0 22 0;
#X connect 22 0 19 1;
#X connect 22 0 21 0;
#X connect 23 0 1 0;
#X connect 24 0 20 0;
#X restore 1199 578 pd sound;
#N canvas 181 196 581 700 sound 0;
#X obj 145 662 dac~;
#X obj 149 371 readsf~ 2;
#X obj 209 396 bng 15 250 50 0 empty empty empty 17 7 0 10 -262144
-1 -1;
#X obj 187 418 gate;
#X obj 151 194 sel 1 0;
#X obj 125 88 inlet;
#X obj 222 90 inlet;
#X obj 232 465 line~;
#X msg 258 437 0 10;
#X obj 102 487 *~;
#X obj 272 89 inlet;
#X obj 127 223 t b b b;
#X msg 190 327 1;
#X obj 185 444 t b b;
#X msg 227 338 stop;
#X msg 244 416 0.4 10;
#X obj 294 477 t b;
#X obj 295 512 delay 20;
#X obj 297 545 bng 15 250 50 0 empty empty empty 17 7 0 10 -262144
-1 -1;
#X obj 156 597 *~;
#X obj 179 537 hsl 128 15 0 1000 0 0 empty empty empty -2 -8 0 10 -262144
-1 -1 698 1;
#X floatatom 200 597 5 0 0 0 - - -;
#X obj 176 565 * 0.01;
#X msg 144 259 open controller3/SFX 05.wav;
#X obj 177 504 r controller3;
#X connect 1 0 9 0;
#X connect 1 1 9 0;
#X connect 1 2 2 0;
#X connect 2 0 3 1;
#X connect 3 0 13 0;
#X connect 4 0 11 0;
#X connect 4 1 8 0;
#X connect 5 0 4 0;
#X connect 6 0 3 0;
#X connect 7 0 9 1;
#X connect 8 0 7 0;
#X connect 8 0 16 0;
#X connect 9 0 19 0;
#X connect 10 0 23 0;
#X connect 11 0 12 0;
#X connect 11 1 23 0;
#X connect 11 2 15 0;
#X connect 12 0 1 0;
#X connect 13 0 12 0;
#X connect 13 1 23 0;
#X connect 14 0 1 0;
#X connect 15 0 7 0;
#X connect 16 0 17 0;
#X connect 17 0 18 0;
#X connect 18 0 14 0;
#X connect 19 0 0 0;
#X connect 19 0 0 1;
#X connect 20 0 22 0;
#X connect 22 0 19 1;
#X connect 22 0 21 0;
#X connect 23 0 1 0;
#X connect 24 0 20 0;
#X restore 1270 579 pd sound;
#N canvas 181 196 581 700 sound 0;
#X obj 155 672 dac~;
#X obj 159 381 readsf~ 2;
#X obj 219 406 bng 15 250 50 0 empty empty empty 17 7 0 10 -262144
-1 -1;
#X obj 197 428 gate;
#X obj 161 204 sel 1 0;
#X obj 135 98 inlet;
#X obj 232 100 inlet;
#X obj 242 475 line~;
#X msg 268 447 0 10;
#X obj 112 497 *~;
#X obj 282 99 inlet;
#X obj 137 233 t b b b;
#X msg 200 337 1;
#X obj 195 454 t b b;
#X msg 237 348 stop;
#X msg 254 426 0.4 10;
#X obj 304 487 t b;
#X obj 305 522 delay 20;
#X obj 307 555 bng 15 250 50 0 empty empty empty 17 7 0 10 -262144
-1 -1;
#X obj 166 607 *~;
#X obj 189 547 hsl 128 15 0 1000 0 0 empty empty empty -2 -8 0 10 -262144
-1 -1 698 1;
#X floatatom 210 607 5 0 0 0 - - -;
#X obj 186 575 * 0.01;
#X msg 154 269 open controller3/SFX 06.wav;
#X obj 187 514 r controller3;
#X connect 1 0 9 0;
#X connect 1 1 9 0;
#X connect 1 2 2 0;
#X connect 2 0 3 1;
#X connect 3 0 13 0;
#X connect 4 0 11 0;
#X connect 4 1 8 0;
#X connect 5 0 4 0;
#X connect 6 0 3 0;
#X connect 7 0 9 1;
#X connect 8 0 7 0;
#X connect 8 0 16 0;
#X connect 9 0 19 0;
#X connect 10 0 23 0;
#X connect 11 0 12 0;
#X connect 11 1 23 0;
#X connect 11 2 15 0;
#X connect 12 0 1 0;
#X connect 13 0 12 0;
#X connect 13 1 23 0;
#X connect 14 0 1 0;
#X connect 15 0 7 0;
#X connect 16 0 17 0;
#X connect 17 0 18 0;
#X connect 18 0 14 0;
#X connect 19 0 0 0;
#X connect 19 0 0 1;
#X connect 20 0 22 0;
#X connect 22 0 19 1;
#X connect 22 0 21 0;
#X connect 23 0 1 0;
#X connect 24 0 20 0;
#X restore 1347 577 pd sound;
#N canvas 416 22 1240 821 files_loader 0;
#X obj 187 39 bng 15 250 50 0 empty empty empty 17 7 0 10 -4034 -1
-1;
#X obj 187 58 folderpanel;
#X obj 187 117 makefilename %s/*;
#X obj 187 139 folder_list;
#X obj 187 161 symbol2list /;
#X obj 187 183 t l l;
#X obj 232 208 list length;
#X obj 232 230 - 1;
#X obj 187 254 list-idx;
#X obj 183 688 msgfile;
#X msg 309 534 clear;
#X msg 187 573 add \$1;
#X obj 187 490 list prepend;
#X obj 187 512 list2symbol /;
#X msg 70 536 rewind \, flush;
#X text 298 112 <-- tell [folder_list] to output all files and folders
within the folder;
#X text 113 202 strip path;
#X text 54 344 filter unwanted files;
#X text 280 510 <-- add path back to file;
#X obj 187 80 trigger symbol symbol bang bang;
#X obj 399 584 f 0;
#X obj 432 584 + 1;
#X msg 414 559 0;
#X text 460 565 count how many files are loaded;
#X obj 187 534 t s b;
#X msg 227 663 goto \$1 \, this;
#X text 288 581 random file;
#X text 206 36 <-- click me and choose a folder;
#X obj 452 614 - 1;
#X obj 184 712 prepend open;
#X obj 89 33 inlet;
#X obj 408 34 inlet;
#X obj 184 788 outlet;
#X obj 183 734 prepend set;
#X obj 189 7 loadbang;
#X obj 367 669 + 1;
#X obj 323 713 msgfile;
#X msg 367 688 goto \$1 \, this;
#X obj 323 732 prepend open;
#X obj 323 751 prepend set;
#X obj 324 786 outlet;
#X obj 445 714 msgfile;
#X msg 489 689 goto \$1 \, this;
#X obj 445 733 prepend open;
#X obj 445 752 prepend set;
#X obj 446 787 outlet;
#X obj 559 714 msgfile;
#X msg 603 689 goto \$1 \, this;
#X obj 559 733 prepend open;
#X obj 559 752 prepend set;
#X obj 560 787 outlet;
#X obj 660 718 msgfile;
#X msg 704 693 goto \$1 \, this;
#X obj 660 737 prepend open;
#X obj 660 756 prepend set;
#X obj 661 791 outlet;
#X obj 777 718 msgfile;
#X msg 821 693 goto \$1 \, this;
#X obj 777 737 prepend open;
#X obj 777 756 prepend set;
#X obj 778 791 outlet;
#X obj 489 670 + 2;
#X obj 603 670 + 3;
#X obj 704 674 + 4;
#X obj 821 674 + 5;
#X obj 492 531 bng 15 250 50 0 empty empty empty 0 -6 0 8 -262144 -1
-1;
#X text 515 533 reset when loading new folder;
#X obj 466 496 t b;
#X floatatom 740 545 5 0 0 0 - - -;
#X text 770 545 total number of files;
#X obj 753 563 / 6;
#X obj 697 587 counter 1;
#X floatatom 639 632 5 0 0 0 - - -;
#X obj 697 612 * 6;
#X obj 666 22 import tof;
#X msg 266 21 symbol controller2;
#X connect 0 0 1 0;
#X connect 1 0 19 0;
#X connect 2 0 3 0;
#X connect 3 0 4 0;
#X connect 4 0 5 0;
#X connect 5 0 8 0;
#X connect 5 1 6 0;
#X connect 6 0 7 0;
#X connect 7 0 8 1;
#X connect 8 0 12 0;
#X connect 9 0 29 0;
#X connect 10 0 9 0;
#X connect 10 0 36 0;
#X connect 10 0 41 0;
#X connect 10 0 46 0;
#X connect 10 0 51 0;
#X connect 10 0 56 0;
#X connect 11 0 9 0;
#X connect 11 0 36 0;
#X connect 11 0 41 0;
#X connect 11 0 46 0;
#X connect 11 0 51 0;
#X connect 11 0 56 0;
#X connect 11 0 67 0;
#X connect 12 0 13 0;
#X connect 13 0 24 0;
#X connect 14 0 9 0;
#X connect 19 0 2 0;
#X connect 19 1 12 1;
#X connect 19 2 10 0;
#X connect 19 3 22 0;
#X connect 20 0 21 0;
#X connect 21 0 20 1;
#X connect 21 0 28 0;
#X connect 22 0 20 1;
#X connect 24 0 11 0;
#X connect 24 1 20 0;
#X connect 25 0 9 0;
#X connect 28 0 68 0;
#X connect 29 0 33 0;
#X connect 30 0 0 0;
#X connect 31 0 71 0;
#X connect 33 0 32 0;
#X connect 34 0 75 0;
#X connect 35 0 37 0;
#X connect 36 0 38 0;
#X connect 37 0 36 0;
#X connect 38 0 39 0;
#X connect 39 0 40 0;
#X connect 41 0 43 0;
#X connect 42 0 41 0;
#X connect 43 0 44 0;
#X connect 44 0 45 0;
#X connect 46 0 48 0;
#X connect 47 0 46 0;
#X connect 48 0 49 0;
#X connect 49 0 50 0;
#X connect 51 0 53 0;
#X connect 52 0 51 0;
#X connect 53 0 54 0;
#X connect 54 0 55 0;
#X connect 56 0 58 0;
#X connect 57 0 56 0;
#X connect 58 0 59 0;
#X connect 59 0 60 0;
#X connect 61 0 42 0;
#X connect 62 0 47 0;
#X connect 63 0 52 0;
#X connect 64 0 57 0;
#X connect 65 0 71 3;
#X connect 67 0 65 0;
#X connect 68 0 70 0;
#X connect 70 0 71 4;
#X connect 71 0 73 0;
#X connect 72 0 25 0;
#X connect 72 0 35 0;
#X connect 72 0 61 0;
#X connect 72 0 62 0;
#X connect 72 0 63 0;
#X connect 72 0 64 0;
#X connect 73 0 72 0;
#X connect 75 0 19 0;
#X restore 601 515 pd files_loader;
#N canvas 302 92 1240 821 files_loader 0;
#X obj 187 39 bng 15 250 50 0 empty empty empty 17 7 0 10 -4034 -1
-1;
#X obj 187 58 folderpanel;
#X obj 187 117 makefilename %s/*;
#X obj 187 139 folder_list;
#X obj 187 161 symbol2list /;
#X obj 187 183 t l l;
#X obj 232 208 list length;
#X obj 232 230 - 1;
#X obj 187 254 list-idx;
#X obj 183 688 msgfile;
#X msg 309 534 clear;
#X msg 187 573 add \$1;
#X obj 187 490 list prepend;
#X obj 187 512 list2symbol /;
#X msg 70 536 rewind \, flush;
#X text 298 112 <-- tell [folder_list] to output all files and folders
within the folder;
#X text 113 202 strip path;
#X text 280 510 <-- add path back to file;
#X obj 187 80 trigger symbol symbol bang bang;
#X obj 399 584 f 0;
#X obj 432 584 + 1;
#X msg 414 559 0;
#X text 460 565 count how many files are loaded;
#X obj 187 534 t s b;
#X msg 227 663 goto \$1 \, this;
#X text 288 581 random file;
#X text 206 36 <-- click me and choose a folder;
#X obj 452 614 - 1;
#X obj 184 712 prepend open;
#X obj 89 33 inlet;
#X obj 408 34 inlet;
#X obj 184 788 outlet;
#X obj 183 734 prepend set;
#X obj 189 7 loadbang;
#X obj 367 669 + 1;
#X obj 323 713 msgfile;
#X msg 367 688 goto \$1 \, this;
#X obj 323 732 prepend open;
#X obj 323 751 prepend set;
#X obj 324 786 outlet;
#X obj 445 714 msgfile;
#X msg 489 689 goto \$1 \, this;
#X obj 445 733 prepend open;
#X obj 445 752 prepend set;
#X obj 446 787 outlet;
#X obj 559 714 msgfile;
#X msg 603 689 goto \$1 \, this;
#X obj 559 733 prepend open;
#X obj 559 752 prepend set;
#X obj 560 787 outlet;
#X obj 660 718 msgfile;
#X msg 704 693 goto \$1 \, this;
#X obj 660 737 prepend open;
#X obj 660 756 prepend set;
#X obj 661 791 outlet;
#X obj 777 718 msgfile;
#X msg 821 693 goto \$1 \, this;
#X obj 777 737 prepend open;
#X obj 777 756 prepend set;
#X obj 778 791 outlet;
#X obj 489 670 + 2;
#X obj 603 670 + 3;
#X obj 704 674 + 4;
#X obj 821 674 + 5;
#X obj 492 531 bng 15 250 50 0 empty empty empty 0 -6 0 8 -262144 -1
-1;
#X text 515 533 reset when loading new folder;
#X obj 466 496 t b;
#X floatatom 740 545 5 0 0 0 - - -;
#X text 770 545 total number of files;
#X obj 753 563 / 6;
#X obj 697 587 counter 1;
#X floatatom 639 632 5 0 0 0 - - -;
#X obj 697 612 * 6;
#X msg 265 11 symbol controller3;
#X connect 0 0 1 0;
#X connect 1 0 18 0;
#X connect 2 0 3 0;
#X connect 3 0 4 0;
#X connect 4 0 5 0;
#X connect 5 0 8 0;
#X connect 5 1 6 0;
#X connect 6 0 7 0;
#X connect 7 0 8 1;
#X connect 8 0 12 0;
#X connect 9 0 28 0;
#X connect 10 0 9 0;
#X connect 10 0 35 0;
#X connect 10 0 40 0;
#X connect 10 0 45 0;
#X connect 10 0 50 0;
#X connect 10 0 55 0;
#X connect 11 0 9 0;
#X connect 11 0 35 0;
#X connect 11 0 40 0;
#X connect 11 0 45 0;
#X connect 11 0 50 0;
#X connect 11 0 55 0;
#X connect 11 0 66 0;
#X connect 12 0 13 0;
#X connect 13 0 23 0;
#X connect 14 0 9 0;
#X connect 18 0 2 0;
#X connect 18 1 12 1;
#X connect 18 2 10 0;
#X connect 18 3 21 0;
#X connect 19 0 20 0;
#X connect 20 0 19 1;
#X connect 20 0 27 0;
#X connect 21 0 19 1;
#X connect 23 0 11 0;
#X connect 23 1 19 0;
#X connect 24 0 9 0;
#X connect 27 0 67 0;
#X connect 28 0 32 0;
#X connect 29 0 0 0;
#X connect 30 0 70 0;
#X connect 32 0 31 0;
#X connect 33 0 73 0;
#X connect 34 0 36 0;
#X connect 35 0 37 0;
#X connect 36 0 35 0;
#X connect 37 0 38 0;
#X connect 38 0 39 0;
#X connect 40 0 42 0;
#X connect 41 0 40 0;
#X connect 42 0 43 0;
#X connect 43 0 44 0;
#X connect 45 0 47 0;
#X connect 46 0 45 0;
#X connect 47 0 48 0;
#X connect 48 0 49 0;
#X connect 50 0 52 0;
#X connect 51 0 50 0;
#X connect 52 0 53 0;
#X connect 53 0 54 0;
#X connect 55 0 57 0;
#X connect 56 0 55 0;
#X connect 57 0 58 0;
#X connect 58 0 59 0;
#X connect 60 0 41 0;
#X connect 61 0 46 0;
#X connect 62 0 51 0;
#X connect 63 0 56 0;
#X connect 64 0 70 3;
#X connect 66 0 64 0;
#X connect 67 0 69 0;
#X connect 69 0 70 4;
#X connect 70 0 72 0;
#X connect 71 0 24 0;
#X connect 71 0 34 0;
#X connect 71 0 60 0;
#X connect 71 0 61 0;
#X connect 71 0 62 0;
#X connect 71 0 63 0;
#X connect 72 0 71 0;
#X connect 73 0 18 0;
#X restore 1023 507 pd files_loader;
#X obj 206 652 import tof;
#X obj 1017 554 r loop2;
#X obj 1086 555 r loop2;
#X obj 1155 553 r loop2;
#X obj 1214 553 r loop2;
#X obj 1286 556 r loop2;
#X obj 1364 554 r loop2;
#X obj 214 442 r openfolder1;
#X text 584 485 Select folder;
#X obj 565 467 r openfolder2;
#X text 1015 481 Select folder;
#X obj 996 463 r openfolder3;
#N canvas 627 194 954 747 sound 0;
#X obj 105 622 dac~;
#X obj 109 331 readsf~ 2;
#X obj 169 356 bng 15 250 50 0 empty empty empty 17 7 0 10 -262144
-1 -1;
#X obj 147 378 gate;
#X obj 111 154 sel 1 0;
#X obj 85 48 inlet;
#X obj 182 50 inlet;
#X obj 192 425 line~;
#X msg 218 397 0 10;
#X obj 62 447 *~;
#X obj 232 49 inlet;
#X obj 87 183 t b b b;
#X msg 150 287 1;
#X obj 145 404 t b b;
#X msg 187 298 stop;
#X msg 204 376 0.4 10;
#X obj 254 437 t b;
#X obj 255 472 delay 20;
#X obj 257 505 bng 15 250 50 0 empty empty empty 17 7 0 10 -262144
-1 -1;
#X obj 116 557 *~;
#X obj 139 494 hsl 128 15 0 1000 0 0 empty empty empty -2 -8 0 10 -262144
-1 -1 5715 1;
#X obj 136 525 * 0.01;
#X msg 104 219 open controller1/drumkit001.aif;
#X obj 137 464 r controller1;
#X connect 1 0 9 0;
#X connect 1 1 9 0;
#X connect 1 2 2 0;
#X connect 2 0 3 1;
#X connect 3 0 13 0;
#X connect 4 0 11 0;
#X connect 4 1 8 0;
#X connect 5 0 4 0;
#X connect 6 0 3 0;
#X connect 7 0 9 1;
#X connect 8 0 7 0;
#X connect 8 0 16 0;
#X connect 9 0 19 0;
#X connect 10 0 22 0;
#X connect 11 0 12 0;
#X connect 11 1 22 0;
#X connect 11 2 15 0;
#X connect 12 0 1 0;
#X connect 13 0 12 0;
#X connect 13 1 22 0;
#X connect 14 0 1 0;
#X connect 15 0 7 0;
#X connect 16 0 17 0;
#X connect 17 0 18 0;
#X connect 18 0 14 0;
#X connect 19 0 0 0;
#X connect 19 0 0 1;
#X connect 20 0 21 0;
#X connect 21 0 19 1;
#X connect 22 0 1 0;
#X connect 23 0 20 0;
#X restore 183 585 pd sound;
#N canvas 181 196 581 700 sound 0;
#X obj 115 632 dac~;
#X obj 119 341 readsf~ 2;
#X obj 179 366 bng 15 250 50 0 empty empty empty 17 7 0 10 -262144
-1 -1;
#X obj 157 388 gate;
#X obj 121 164 sel 1 0;
#X obj 95 58 inlet;
#X obj 192 60 inlet;
#X obj 202 435 line~;
#X msg 228 407 0 10;
#X obj 72 457 *~;
#X obj 242 59 inlet;
#X obj 97 193 t b b b;
#X msg 160 297 1;
#X obj 155 414 t b b;
#X msg 197 308 stop;
#X msg 214 386 0.4 10;
#X obj 264 447 t b;
#X obj 265 482 delay 20;
#X obj 267 515 bng 15 250 50 0 empty empty empty 17 7 0 10 -262144
-1 -1;
#X obj 126 567 *~;
#X obj 149 507 hsl 128 15 0 1000 0 0 empty empty empty -2 -8 0 10 -262144
-1 -1 5715 1;
#X floatatom 170 567 5 0 0 0 - - -;
#X obj 146 535 * 0.01;
#X msg 114 229 open controller1/drumkit002.aif;
#X obj 147 474 r controller1;
#X connect 1 0 9 0;
#X connect 1 1 9 0;
#X connect 1 2 2 0;
#X connect 2 0 3 1;
#X connect 3 0 13 0;
#X connect 4 0 11 0;
#X connect 4 1 8 0;
#X connect 5 0 4 0;
#X connect 6 0 3 0;
#X connect 7 0 9 1;
#X connect 8 0 7 0;
#X connect 8 0 16 0;
#X connect 9 0 19 0;
#X connect 10 0 23 0;
#X connect 11 0 12 0;
#X connect 11 1 23 0;
#X connect 11 2 15 0;
#X connect 12 0 1 0;
#X connect 13 0 12 0;
#X connect 13 1 23 0;
#X connect 14 0 1 0;
#X connect 15 0 7 0;
#X connect 16 0 17 0;
#X connect 17 0 18 0;
#X connect 18 0 14 0;
#X connect 19 0 0 0;
#X connect 19 0 0 1;
#X connect 20 0 22 0;
#X connect 22 0 19 1;
#X connect 22 0 21 0;
#X connect 23 0 1 0;
#X connect 24 0 20 0;
#X restore 246 585 pd sound;
#N canvas 0 217 581 700 sound 0;
#X obj 125 642 dac~;
#X obj 129 351 readsf~ 2;
#X obj 189 376 bng 15 250 50 0 empty empty empty 17 7 0 10 -262144
-1 -1;
#X obj 167 398 gate;
#X obj 131 174 sel 1 0;
#X obj 105 68 inlet;
#X obj 202 70 inlet;
#X obj 212 445 line~;
#X msg 238 417 0 10;
#X obj 82 467 *~;
#X obj 252 69 inlet;
#X obj 107 203 t b b b;
#X msg 170 307 1;
#X obj 165 424 t b b;
#X msg 207 318 stop;
#X msg 224 396 0.4 10;
#X obj 274 457 t b;
#X obj 275 492 delay 20;
#X obj 277 525 bng 15 250 50 0 empty empty empty 17 7 0 10 -262144
-1 -1;
#X obj 136 577 *~;
#X obj 159 517 hsl 128 15 0 1000 0 0 empty empty empty -2 -8 0 10 -262144
-1 -1 5715 1;
#X floatatom 180 577 5 0 0 0 - - -;
#X obj 156 545 * 0.01;
#X msg 124 239 open controller1/drumkit003.aif;
#X obj 157 484 r controller1;
#X connect 1 0 9 0;
#X connect 1 1 9 0;
#X connect 1 2 2 0;
#X connect 2 0 3 1;
#X connect 3 0 13 0;
#X connect 4 0 11 0;
#X connect 4 1 8 0;
#X connect 5 0 4 0;
#X connect 6 0 3 0;
#X connect 7 0 9 1;
#X connect 8 0 7 0;
#X connect 8 0 16 0;
#X connect 9 0 19 0;
#X connect 10 0 23 0;
#X connect 11 0 12 0;
#X connect 11 1 23 0;
#X connect 11 2 15 0;
#X connect 12 0 1 0;
#X connect 13 0 12 0;
#X connect 13 1 23 0;
#X connect 14 0 1 0;
#X connect 15 0 7 0;
#X connect 16 0 17 0;
#X connect 17 0 18 0;
#X connect 18 0 14 0;
#X connect 19 0 0 0;
#X connect 19 0 0 1;
#X connect 20 0 22 0;
#X connect 22 0 19 1;
#X connect 22 0 21 0;
#X connect 23 0 1 0;
#X connect 24 0 20 0;
#X restore 310 586 pd sound;
#N canvas 181 196 581 700 sound 0;
#X obj 135 652 dac~;
#X obj 139 361 readsf~ 2;
#X obj 199 386 bng 15 250 50 0 empty empty empty 17 7 0 10 -262144
-1 -1;
#X obj 177 408 gate;
#X obj 141 184 sel 1 0;
#X obj 115 78 inlet;
#X obj 212 80 inlet;
#X obj 222 455 line~;
#X msg 248 427 0 10;
#X obj 92 477 *~;
#X obj 262 79 inlet;
#X obj 117 213 t b b b;
#X msg 180 317 1;
#X obj 175 434 t b b;
#X msg 217 328 stop;
#X msg 234 406 0.4 10;
#X obj 284 467 t b;
#X obj 285 502 delay 20;
#X obj 287 535 bng 15 250 50 0 empty empty empty 17 7 0 10 -262144
-1 -1;
#X obj 146 587 *~;
#X obj 169 527 hsl 128 15 0 1000 0 0 empty empty empty -2 -8 0 10 -262144
-1 -1 5715 1;
#X floatatom 190 587 5 0 0 0 - - -;
#X obj 166 555 * 0.01;
#X msg 134 249 open controller1/drumkit004.aif;
#X obj 167 494 r controller1;
#X connect 1 0 9 0;
#X connect 1 1 9 0;
#X connect 1 2 2 0;
#X connect 2 0 3 1;
#X connect 3 0 13 0;
#X connect 4 0 11 0;
#X connect 4 1 8 0;
#X connect 5 0 4 0;
#X connect 6 0 3 0;
#X connect 7 0 9 1;
#X connect 8 0 7 0;
#X connect 8 0 16 0;
#X connect 9 0 19 0;
#X connect 10 0 23 0;
#X connect 11 0 12 0;
#X connect 11 1 23 0;
#X connect 11 2 15 0;
#X connect 12 0 1 0;
#X connect 13 0 12 0;
#X connect 13 1 23 0;
#X connect 14 0 1 0;
#X connect 15 0 7 0;
#X connect 16 0 17 0;
#X connect 17 0 18 0;
#X connect 18 0 14 0;
#X connect 19 0 0 0;
#X connect 19 0 0 1;
#X connect 20 0 22 0;
#X connect 22 0 19 1;
#X connect 22 0 21 0;
#X connect 23 0 1 0;
#X connect 24 0 20 0;
#X restore 371 587 pd sound;
#N canvas 181 196 581 700 sound 0;
#X obj 145 662 dac~;
#X obj 149 371 readsf~ 2;
#X obj 209 396 bng 15 250 50 0 empty empty empty 17 7 0 10 -262144
-1 -1;
#X obj 187 418 gate;
#X obj 151 194 sel 1 0;
#X obj 125 88 inlet;
#X obj 222 90 inlet;
#X obj 232 465 line~;
#X msg 258 437 0 10;
#X obj 102 487 *~;
#X obj 272 89 inlet;
#X obj 127 223 t b b b;
#X msg 190 327 1;
#X obj 185 444 t b b;
#X msg 227 338 stop;
#X msg 244 416 0.4 10;
#X obj 294 477 t b;
#X obj 295 512 delay 20;
#X obj 297 545 bng 15 250 50 0 empty empty empty 17 7 0 10 -262144
-1 -1;
#X obj 156 597 *~;
#X obj 179 537 hsl 128 15 0 1000 0 0 empty empty empty -2 -8 0 10 -262144
-1 -1 5715 1;
#X floatatom 200 597 5 0 0 0 - - -;
#X obj 176 565 * 0.01;
#X msg 144 259 open controller1/drumkit005.aif;
#X obj 177 504 r controller1;
#X connect 1 0 9 0;
#X connect 1 1 9 0;
#X connect 1 2 2 0;
#X connect 2 0 3 1;
#X connect 3 0 13 0;
#X connect 4 0 11 0;
#X connect 4 1 8 0;
#X connect 5 0 4 0;
#X connect 6 0 3 0;
#X connect 7 0 9 1;
#X connect 8 0 7 0;
#X connect 8 0 16 0;
#X connect 9 0 19 0;
#X connect 10 0 23 0;
#X connect 11 0 12 0;
#X connect 11 1 23 0;
#X connect 11 2 15 0;
#X connect 12 0 1 0;
#X connect 13 0 12 0;
#X connect 13 1 23 0;
#X connect 14 0 1 0;
#X connect 15 0 7 0;
#X connect 16 0 17 0;
#X connect 17 0 18 0;
#X connect 18 0 14 0;
#X connect 19 0 0 0;
#X connect 19 0 0 1;
#X connect 20 0 22 0;
#X connect 22 0 19 1;
#X connect 22 0 21 0;
#X connect 23 0 1 0;
#X connect 24 0 20 0;
#X restore 438 588 pd sound;
#N canvas 181 196 581 700 sound 0;
#X obj 155 672 dac~;
#X obj 159 381 readsf~ 2;
#X obj 219 406 bng 15 250 50 0 empty empty empty 17 7 0 10 -262144
-1 -1;
#X obj 197 428 gate;
#X obj 161 204 sel 1 0;
#X obj 135 98 inlet;
#X obj 232 100 inlet;
#X obj 242 475 line~;
#X msg 268 447 0 10;
#X obj 112 497 *~;
#X obj 282 99 inlet;
#X obj 137 233 t b b b;
#X msg 200 337 1;
#X obj 195 454 t b b;
#X msg 237 348 stop;
#X msg 254 426 0.4 10;
#X obj 304 487 t b;
#X obj 305 522 delay 20;
#X obj 307 555 bng 15 250 50 0 empty empty empty 17 7 0 10 -262144
-1 -1;
#X obj 166 607 *~;
#X obj 189 547 hsl 128 15 0 1000 0 0 empty empty empty -2 -8 0 10 -262144
-1 -1 5715 1;
#X floatatom 210 607 5 0 0 0 - - -;
#X obj 186 575 * 0.01;
#X msg 154 269 open controller1/drumkit006.aif;
#X obj 187 514 r controller1;
#X connect 1 0 9 0;
#X connect 1 1 9 0;
#X connect 1 2 2 0;
#X connect 2 0 3 1;
#X connect 3 0 13 0;
#X connect 4 0 11 0;
#X connect 4 1 8 0;
#X connect 5 0 4 0;
#X connect 6 0 3 0;
#X connect 7 0 9 1;
#X connect 8 0 7 0;
#X connect 8 0 16 0;
#X connect 9 0 19 0;
#X connect 10 0 23 0;
#X connect 11 0 12 0;
#X connect 11 1 23 0;
#X connect 11 2 15 0;
#X connect 12 0 1 0;
#X connect 13 0 12 0;
#X connect 13 1 23 0;
#X connect 14 0 1 0;
#X connect 15 0 7 0;
#X connect 16 0 17 0;
#X connect 17 0 18 0;
#X connect 18 0 14 0;
#X connect 19 0 0 0;
#X connect 19 0 0 1;
#X connect 20 0 22 0;
#X connect 22 0 19 1;
#X connect 22 0 21 0;
#X connect 23 0 1 0;
#X connect 24 0 20 0;
#X restore 498 588 pd sound;
#X obj 200 563 r loop3;
#X obj 263 562 r loop3;
#X obj 327 564 r loop3;
#X obj 393 562 r loop3;
#X obj 456 566 r loop3;
#X obj 514 566 r loop3;
#X obj 109 108 bng 15 250 50 0 empty empty empty 17 7 0 10 -262144
-1 -1;
#X obj 26 184 s openfolder1;
#X obj 109 193 bng 15 250 50 0 empty empty empty 17 7 0 10 -262144
-1 -1;
#X obj 109 216 bng 15 250 50 0 empty empty empty 17 7 0 10 -262144
-1 -1;
#X obj 109 239 bng 15 250 50 0 empty empty empty 17 7 0 10 -262144
-1 -1;
#X obj 19 207 s openfolder2;
#X obj 18 225 s openfolder3;
#X obj 416 475 s dec1;
#X obj 466 476 s inc1;
#X obj 737 464 s dec2;
#X obj 787 464 s inc2;
#X obj 1171 467 s dec3;
#X obj 1221 469 s inc3;
#X obj 109 159 hradio 15 1 0 15 empty empty empty 0 -8 0 10 -262144
-1 -1 2;
#X msg 316 61 2;
#X msg 373 87 open \$1;
#X text 108 129 Select your COMPORT;
#X text 129 110 Click to find COMPORT;
#X text 111 142 0;
#X text 127 142 1;
#X text 141 143 2;
#X text 159 143 3;
#X text 173 143 4;
#X text 187 143 5;
#X text 203 144 6;
#X text 218 144 7;
#X obj 413 65 s volumebass;
#X obj 480 65 s volume3;
#X text 233 144 8;
#X text 248 144 9;
#X text 261 144 10;
#X text 276 144 11;
#X text 359 165 comment;
#X text 290 144 12;
#X text 304 144 13;
#X text 320 144 14;
#X text 129 216 Click to load Folder Controller 2;
#X text 128 193 Click to load Folder Controller 1;
#X text 129 240 Click to load Folder Controller 3;
#X msg 470 44 55;
#X msg 403 44 70;
#X msg 371 45 450;
#X connect 0 0 33 0;
#X connect 1 0 0 0;
#X connect 2 0 1 0;
#X connect 3 0 20 0;
#X connect 4 0 19 0;
#X connect 5 0 14 0;
#X connect 6 0 13 0;
#X connect 7 0 18 0;
#X connect 8 0 16 0;
#X connect 9 0 15 0;
#X connect 10 0 17 0;
#X connect 11 0 95 1;
#X connect 11 0 138 0;
#X connect 12 0 95 1;
#X connect 12 0 137 0;
#X connect 13 0 11 0;
#X connect 14 0 12 0;
#X connect 21 0 22 0;
#X connect 21 0 94 0;
#X connect 21 0 171 0;
#X connect 21 0 144 0;
#X connect 21 0 170 0;
#X connect 21 0 169 0;
#X connect 23 0 121 0;
#X connect 24 0 122 0;
#X connect 25 0 89 0;
#X connect 26 0 88 0;
#X connect 27 0 83 0;
#X connect 28 0 82 0;
#X connect 29 0 84 0;
#X connect 30 0 86 0;
#X connect 31 0 85 0;
#X connect 32 0 87 0;
#X connect 33 0 3 0;
#X connect 33 1 4 0;
#X connect 33 2 5 0;
#X connect 33 3 6 0;
#X connect 33 4 7 0;
#X connect 33 5 8 0;
#X connect 33 6 9 0;
#X connect 33 7 10 0;
#X connect 33 9 25 0;
#X connect 33 10 26 0;
#X connect 33 11 27 0;
#X connect 33 12 28 0;
#X connect 33 13 29 0;
#X connect 33 14 30 0;
#X connect 33 15 31 0;
#X connect 33 16 32 0;
#X connect 33 18 34 0;
#X connect 33 19 35 0;
#X connect 33 20 36 0;
#X connect 33 21 37 0;
#X connect 33 22 38 0;
#X connect 33 23 39 0;
#X connect 33 24 40 0;
#X connect 33 25 41 0;
#X connect 34 0 43 0;
#X connect 35 0 44 0;
#X connect 36 0 48 0;
#X connect 37 0 47 0;
#X connect 38 0 49 0;
#X connect 39 0 51 0;
#X connect 40 0 50 0;
#X connect 41 0 52 0;
#X connect 42 0 98 0;
#X connect 45 0 105 1;
#X connect 45 0 142 0;
#X connect 46 0 105 1;
#X connect 46 0 141 0;
#X connect 47 0 45 0;
#X connect 48 0 46 0;
#X connect 53 0 99 0;
#X connect 54 0 100 0;
#X connect 55 0 102 0;
#X connect 56 0 57 1;
#X connect 58 0 59 1;
#X connect 60 0 61 1;
#X connect 62 0 63 1;
#X connect 64 0 65 1;
#X connect 66 0 67 1;
#X connect 68 0 57 0;
#X connect 69 0 59 0;
#X connect 70 0 61 0;
#X connect 71 0 63 0;
#X connect 72 0 65 0;
#X connect 73 0 67 0;
#X connect 74 0 119 0;
#X connect 75 0 120 0;
#X connect 76 0 123 0;
#X connect 77 0 118 0;
#X connect 78 0 103 0;
#X connect 79 0 101 0;
#X connect 80 0 104 1;
#X connect 80 0 140 0;
#X connect 81 0 104 1;
#X connect 81 0 139 0;
#X connect 82 0 80 0;
#X connect 83 0 81 0;
#X connect 94 0 93 0;
#X connect 95 0 118 2;
#X connect 95 1 119 2;
#X connect 95 2 120 2;
#X connect 95 3 121 2;
#X connect 95 4 122 2;
#X connect 95 5 123 2;
#X connect 104 0 57 2;
#X connect 104 1 59 2;
#X connect 104 2 61 2;
#X connect 104 3 63 2;
#X connect 104 4 65 2;
#X connect 104 5 67 2;
#X connect 105 0 98 2;
#X connect 105 1 99 2;
#X connect 105 2 100 2;
#X connect 105 3 101 2;
#X connect 105 4 102 2;
#X connect 105 5 103 2;
#X connect 107 0 98 1;
#X connect 108 0 99 1;
#X connect 109 0 100 1;
#X connect 110 0 101 1;
#X connect 111 0 102 1;
#X connect 112 0 103 1;
#X connect 113 0 95 0;
#X connect 115 0 104 0;
#X connect 117 0 105 0;
#X connect 124 0 118 1;
#X connect 125 0 119 1;
#X connect 126 0 120 1;
#X connect 127 0 121 1;
#X connect 128 0 122 1;
#X connect 129 0 123 1;
#X connect 130 0 2 0;
#X connect 132 0 131 0;
#X connect 133 0 135 0;
#X connect 134 0 136 0;
#X connect 143 0 145 0;
#X connect 144 0 143 0;
#X connect 145 0 1 0;
#X connect 169 0 157 0;
#X connect 170 0 156 0;
#X connect 171 0 97 0;
#X coords 0 -1 1 1 258 160 2 100 100;
#X restore 10 178 pd resware;
#N canvas 0 22 1003 396 vol1 0;
#X obj 113 117 hsl 128 15 0 1000 0 0 empty empty empty -2 -8 0 10 -262144
-1 -1 5715 1;
#X obj 110 137 s controller1;
#X obj 70 77 r volume;
#X text 108 101 Controller #1 Volume;
#X connect 0 0 1 0;
#X connect 2 0 0 0;
#X coords 0 -1 1 1 150 40 2 100 100;
#X restore 275 178 pd vol1;
#N canvas 0 22 1003 396 vol1 0;
#X obj 113 117 hsl 128 15 0 1000 0 0 empty empty empty -2 -8 0 10 -262144
-1 -1 889 1;
#X obj 110 137 s controller2;
#X text 108 101 Controller #2 Volume;
#X obj 71 77 r volumebass;
#X connect 0 0 1 0;
#X connect 3 0 0 0;
#X coords 0 -1 1 1 150 40 2 100 100;
#X restore 275 238 pd vol1;
#N canvas 0 22 1003 396 vol1 0;
#X obj 113 117 hsl 128 15 0 1000 0 0 empty empty empty -2 -8 0 10 -262144
-1 -1 698 1;
#X text 108 101 Controller #3 Volume;
#X obj 110 137 s controller3;
#X obj 70 77 r volume3;
#X connect 0 0 2 0;
#X connect 3 0 0 0;
#X coords 0 -1 1 1 150 40 2 100 100;
#X restore 276 298 pd vol1;
#N canvas 0 22 450 300 loopsonoff 0;
#X obj 114 113 tgl 15 0 empty empty empty 17 7 0 10 -262144 -1 -1 0
1;
#X obj 76 42 loadbang;
#X text 133 114 Loop;
#X msg 80 60 0;
#X obj 109 157 s loop3;
#X connect 0 0 4 0;
#X connect 1 0 3 0;
#X connect 3 0 0 0;
#X coords 0 -1 1 1 70 40 2 100 100;
#X restore 433 178 pd loopsonoff;
#N canvas 0 22 450 300 loopsonoff 0;
#X obj 114 113 tgl 15 0 empty empty empty 17 7 0 10 -262144 -1 -1 1
1;
#X obj 76 42 loadbang;
#X text 133 114 Loop;
#X obj 109 157 s loop;
#X msg 80 60 1;
#X connect 0 0 3 0;
#X connect 1 0 4 0;
#X connect 4 0 0 0;
#X coords 0 -1 1 1 70 40 2 100 100;
#X restore 434 238 pd loopsonoff;
#N canvas 110 498 450 300 loopsonoff 0;
#X obj 114 113 tgl 15 0 empty empty empty 17 7 0 10 -262144 -1 -1 1
1;
#X obj 76 42 loadbang;
#X text 133 114 Loop;
#X obj 109 157 s loop2;
#X msg 80 60 1;
#X connect 0 0 3 0;
#X connect 1 0 4 0;
#X connect 4 0 0 0;
#X coords 0 -1 1 1 70 40 2 100 100;
#X restore 434 298 pd loopsonoff;
#N canvas 436 377 910 647 controllerlayout_1 0;
#X obj 131 232 tgl 15 0 empty empty empty 17 7 0 10 -262144 -1 -1 0
1;
#X obj 131 207 tgl 15 0 empty empty empty 17 7 0 10 -262144 -1 -1 0
1;
#X obj 423 415 tgl 15 0 empty empty empty 17 7 0 10 -262144 -1 -1 0
1;
#X obj 270 414 tgl 15 0 empty empty empty 17 7 0 10 -262144 -1 -1 0
1;
#X obj 237 414 tgl 15 0 empty empty empty 17 7 0 10 -262144 -1 -1 0
1;
#X obj 468 415 tgl 15 0 empty empty empty 17 7 0 10 -262144 -1 -1 0
1;
#X msg 353 232 open controller.gif;
#X obj 353 264 image controller.gif;
#X obj 318 414 bng 15 250 50 0 empty empty empty 17 7 0 10 -262144
-1 -1;
#X obj 360 414 bng 15 250 50 0 empty empty empty 17 7 0 10 -262144
-1 -1;
#X obj 1 80 r left2;
#X obj 50 74 r up2;
#X obj 108 69 r b2;
#X obj 168 68 r right2;
#X obj 227 69 r down2;
#X obj 282 69 r a2;
#X obj 426 485 r dec2;
#X obj 476 486 r inc2;
#X text 110 431 controller 2;
#X connect 6 0 7 0;
#X connect 10 0 0 0;
#X connect 11 0 1 0;
#X connect 12 0 2 0;
#X connect 13 0 3 0;
#X connect 14 0 4 0;
#X connect 15 0 5 0;
#X connect 16 0 8 0;
#X connect 17 0 9 0;
#X coords 0 -1 1 1 495 350 2 100 100;
#X restore 9 348 pd controllerlayout_1;
#N canvas 536 317 910 647 controllerlayout_1 0;
#X obj 131 232 tgl 15 0 empty empty empty 17 7 0 10 -262144 -1 -1 0
1;
#X obj 131 207 tgl 15 0 empty empty empty 17 7 0 10 -262144 -1 -1 0
1;
#X obj 423 415 tgl 15 0 empty empty empty 17 7 0 10 -262144 -1 -1 0
1;
#X obj 270 414 tgl 15 0 empty empty empty 17 7 0 10 -262144 -1 -1 0
1;
#X obj 237 414 tgl 15 0 empty empty empty 17 7 0 10 -262144 -1 -1 0
1;
#X obj 468 415 tgl 15 0 empty empty empty 17 7 0 10 -262144 -1 -1 0
1;
#X msg 353 232 open controller.gif;
#X obj 353 264 image controller.gif;
#X obj 318 414 bng 15 250 50 0 empty empty empty 17 7 0 10 -262144
-1 -1;
#X obj 360 414 bng 15 250 50 0 empty empty empty 17 7 0 10 -262144
-1 -1;
#X obj 426 485 r dec1;
#X obj 476 486 r inc1;
#X text 107 432 controller 1;
#X obj 1 80 r left;
#X obj 50 74 r up;
#X obj 108 69 r b;
#X obj 168 68 r right;
#X obj 227 69 r down;
#X obj 282 69 r a;
#X connect 6 0 7 0;
#X connect 10 0 8 0;
#X connect 11 0 9 0;
#X connect 13 0 0 0;
#X connect 14 0 1 0;
#X connect 15 0 2 0;
#X connect 16 0 3 0;
#X connect 17 0 4 0;
#X connect 18 0 5 0;
#X coords 0 -1 1 1 495 350 2 100 100;
#X restore 514 -11 pd controllerlayout_1;
#N canvas 536 317 910 647 controllerlayout_1 0;
#X obj 131 232 tgl 15 0 empty empty empty 17 7 0 10 -262144 -1 -1 0
1;
#X obj 131 207 tgl 15 0 empty empty empty 17 7 0 10 -262144 -1 -1 0
1;
#X obj 423 415 tgl 15 0 empty empty empty 17 7 0 10 -262144 -1 -1 0
1;
#X obj 270 414 tgl 15 0 empty empty empty 17 7 0 10 -262144 -1 -1 0
1;
#X obj 237 414 tgl 15 0 empty empty empty 17 7 0 10 -262144 -1 -1 0
1;
#X obj 468 415 tgl 15 0 empty empty empty 17 7 0 10 -262144 -1 -1 0
1;
#X msg 353 232 open controller.gif;
#X obj 353 264 image controller.gif;
#X obj 318 414 bng 15 250 50 0 empty empty empty 17 7 0 10 -262144
-1 -1;
#X obj 360 414 bng 15 250 50 0 empty empty empty 17 7 0 10 -262144
-1 -1;
#X obj 1 80 r left3;
#X obj 50 74 r up3;
#X obj 108 69 r b3;
#X obj 168 68 r right3;
#X obj 227 69 r down3;
#X obj 282 69 r a3;
#X obj 426 485 r dec3;
#X obj 476 487 r inc3;
#X text 110 431 controller 3;
#X connect 6 0 7 0;
#X connect 10 0 0 0;
#X connect 11 0 1 0;
#X connect 12 0 2 0;
#X connect 13 0 3 0;
#X connect 14 0 4 0;
#X connect 15 0 5 0;
#X connect 16 0 8 0;
#X connect 17 0 9 0;
#X coords 0 -1 1 1 495 350 2 100 100;
#X restore 515 348 pd controllerlayout_1;
#X obj 249 80 image reslogo.gif;
#X text 9 713 This work is licensed under a Creative Commons Attribution-NonCommercial-ShareAlike
3 Unported License.;
#X obj 967 720 image license.gif;
#X text 9 701 RESWARE Beta 2 by www.recyclism.com;
